<svg width="100" height="100" viewBox="0 0 100 100" fill="none" xmlns="http://www.w3.org/2000/svg">
<path d="M91.6665 23.1458V76.8541C91.6665 79.4999 90.0207 81.8541 87.5415 82.7291L69.1665 91.3541L70.8332 68.7499V31.2499L69.1665 8.64575L87.5415 17.2708C90.0207 18.1458 91.6665 20.4999 91.6665 23.1458Z" fill="#29B6F6"/>
<path d="M18.7498 70.6167L70.8331 31.2501V11.1521C70.8331 8.6563 67.7456 7.48963 66.0935 9.36047L9.70396 60.9146C7.82896 62.6438 7.93521 65.6375 9.92688 67.2313C9.92688 67.2313 12.6852 69.798 13.6831 70.5105C15.2165 71.6042 17.231 71.7292 18.7498 70.6167Z" fill="#0277BD"/>
<path d="M18.7498 29.3834L70.8331 68.7501V88.848C70.8331 91.3438 67.7456 92.5105 66.0935 90.6397L9.70396 39.0855C7.82896 37.3563 7.93521 34.3626 9.92688 32.7688C9.92688 32.7688 12.6852 30.2022 13.6831 29.4897C15.2165 28.3959 17.231 28.2709 18.7498 29.3834Z" fill="#0288D1"/>
</svg>
