<svg width="37" height="24" viewBox="0 0 37 24" fill="none" xmlns="http://www.w3.org/2000/svg">
<g clip-path="url(#clip0_235_602)">
<mask id="mask0_235_602" style="mask-type:luminance" maskUnits="userSpaceOnUse" x="0" y="0" width="37" height="24">
<path d="M36.75 0H0.75V24H36.75V0Z" fill="white"/>
</mask>
<g mask="url(#mask0_235_602)">
<path d="M38.6323 -2.40002H-1.13232V26.4H38.6323V-2.40002Z" fill="#DC1F26"/>
<path d="M36.75 -0.0120239H0.75V24.012H36.75V-0.0120239Z" fill="#009B3A"/>
<path d="M7.08594 11.9999L18.7499 19.4639L30.4139 11.9999L18.7499 4.53595L7.08594 11.9999Z" fill="#FEDF00"/>
<path d="M18.75 16.9284C21.4664 16.9284 23.6685 14.7219 23.6685 12C23.6685 9.27811 21.4664 7.07159 18.75 7.07159C16.0335 7.07159 13.8314 9.27811 13.8314 12C13.8314 14.7219 16.0335 16.9284 18.75 16.9284Z" fill="#002776"/>
<mask id="mask1_235_602" style="mask-type:luminance" maskUnits="userSpaceOnUse" x="13" y="7" width="11" height="10">
<path d="M18.75 16.9284C21.4664 16.9284 23.6685 14.7219 23.6685 12C23.6685 9.27811 21.4664 7.07159 18.75 7.07159C16.0335 7.07159 13.8314 9.27811 13.8314 12C13.8314 14.7219 16.0335 16.9284 18.75 16.9284Z" fill="white"/>
</mask>
<g mask="url(#mask1_235_602)">
<path d="M3.99426 21.8568C3.99426 15.2465 9.34194 9.888 15.9393 9.888C22.5367 9.888 27.8843 15.2465 27.8843 21.8568H27.1816C27.1816 15.6353 22.1483 10.5919 15.9393 10.5919C9.73026 10.5919 4.69698 15.636 4.69698 21.8568H3.99426Z" fill="white"/>
</g>
<path d="M16.1251 10.474L16.5466 10.4889L16.5494 10.4018L16.2084 10.3898L16.2127 10.2698L16.4801 10.2792L16.483 10.1988L16.2154 10.188L16.2187 10.0941L16.5398 10.1054L16.542 10.02L16.1407 10.006L16.1251 10.474Z" fill="#009B3A"/>
<path d="M16.7194 10.5L16.7995 10.5069L16.8274 10.1863L16.8929 10.5151L16.9649 10.5216L17.0863 10.2096L17.0582 10.5302L17.1382 10.5372L17.179 10.0697L17.0623 10.0593L16.9423 10.3713L16.878 10.0421L16.7614 10.0317L16.7194 10.5Z" fill="#009B3A"/>
<path d="M17.6899 10.6092L18.0363 10.668L18.0499 10.5888L17.7828 10.5427L17.8008 10.4371L18.0185 10.4745L18.0322 10.3951L17.814 10.3584L17.8265 10.2864L18.0852 10.331L18.0989 10.2518L17.761 10.1935L17.6899 10.6092Z" fill="#009B3A"/>
<path d="M20.5929 11.2166L20.7556 11.2877L20.729 11.3491L20.5663 11.2783L20.5929 11.2166Z" fill="#009B3A"/>
<path d="M20.6942 11.2608L20.7556 11.2877L20.6623 11.5027L20.6008 11.4761L20.6942 11.2608Z" fill="#009B3A"/>
<path d="M22.033 12.0758C22.009 12.1154 22.033 12.1596 22.0899 12.1958C22.1467 12.2321 22.1859 12.2306 22.201 12.2052C22.2523 12.1245 21.9559 12.0072 22.0474 11.8665C22.1261 11.7465 22.2607 11.8399 22.3114 11.8723C22.362 11.9047 22.4436 11.9885 22.3803 12.0852L22.2941 12.0302C22.321 11.9877 22.2915 11.9472 22.2461 11.9184C22.2007 11.8896 22.1669 11.8776 22.1407 11.9184C22.0971 11.9839 22.3875 12.1077 22.2984 12.2477C22.2327 12.3509 22.1187 12.3057 22.0423 12.257C21.9775 12.2157 21.8806 12.1181 21.9437 12.0192L22.033 12.0758Z" fill="#009B3A"/>
<path d="M21.3497 11.8461L21.7167 12.0542L21.7594 11.9783L21.4623 11.8103L21.5218 11.7052L21.7546 11.8375L21.7942 11.7674L21.5612 11.6354L21.6075 11.5535L21.8869 11.7119L21.9298 11.6359L21.5804 11.4379L21.3497 11.8461Z" fill="#009B3A"/>
<path d="M22.5355 12.408C22.5084 12.4462 22.5317 12.4915 22.586 12.5304C22.6402 12.5693 22.6791 12.5702 22.6966 12.5455C22.7518 12.4678 22.4624 12.3348 22.5608 12.1994C22.6457 12.083 22.7753 12.1838 22.8248 12.2189C22.8742 12.2539 22.951 12.342 22.8826 12.4349L22.7993 12.3756C22.8286 12.3346 22.801 12.2923 22.7575 12.2611C22.7141 12.2299 22.6805 12.2165 22.6522 12.2561C22.6042 12.3192 22.8886 12.4579 22.7926 12.5921C22.7206 12.6917 22.61 12.6401 22.5365 12.5882C22.4739 12.5434 22.3819 12.4409 22.4503 12.3454L22.5355 12.408Z" fill="#009B3A"/>
<path d="M14.7358 10.3008C14.72 10.1721 14.6136 10.0792 14.498 10.0934C14.3823 10.1076 14.3016 10.2235 14.3172 10.3521C14.3328 10.4808 14.4394 10.5736 14.5551 10.5592C14.6708 10.5448 14.7514 10.4294 14.7358 10.3008ZM14.526 10.1836C14.6852 10.1836 14.6852 10.4697 14.526 10.4697C14.3669 10.4697 14.3674 10.1836 14.526 10.1836Z" fill="#009B3A"/>
<path d="M23.3666 12.8738C23.4261 12.7589 23.3906 12.6221 23.2872 12.5683C23.1837 12.5146 23.0517 12.5645 22.9922 12.6797C22.9327 12.7949 22.9682 12.9314 23.0717 12.9852C23.1751 13.039 23.3071 12.989 23.3666 12.8738ZM23.2601 12.6578C23.3913 12.7481 23.2301 12.984 23.0988 12.894C22.9675 12.804 23.1285 12.5688 23.2601 12.66V12.6578Z" fill="#009B3A"/>
<path d="M15.9122 10.0941C15.8604 10.0109 15.7565 10.007 15.7565 10.007L15.5222 10.0106L15.5304 10.4801C15.5304 10.4801 15.7161 10.4801 15.7656 10.4753C15.7941 10.4717 15.8216 10.4626 15.8466 10.4483C15.8715 10.434 15.8933 10.4148 15.9108 10.392C15.9393 10.3492 15.9524 10.298 15.948 10.2468C15.953 10.1934 15.9405 10.1398 15.9122 10.0941ZM15.7202 10.3908H15.6151C15.6151 10.3908 15.611 10.1537 15.6101 10.0958C15.7061 10.0946 15.7101 10.0946 15.7478 10.0946C15.8172 10.0958 15.8465 10.1477 15.8611 10.1813C15.8651 10.2094 15.8674 10.2378 15.8678 10.2662C15.8652 10.3011 15.8495 10.3337 15.8239 10.3574C15.7948 10.3807 15.7582 10.3925 15.7209 10.3908H15.7202Z" fill="#009B3A"/>
<path d="M15.2724 10.2974C15.3024 10.2706 15.3238 10.2355 15.3339 10.1966C15.3394 10.158 15.3294 10.1187 15.306 10.0874C15.2826 10.0561 15.2477 10.0354 15.2091 10.0298L15.1978 10.0286C15.1498 10.0305 14.9098 10.0473 14.9098 10.0473L14.9357 10.5161L15.0226 10.5101L15.0104 10.3361L15.1611 10.3255L15.1973 10.3229C15.1973 10.3229 15.2439 10.3994 15.2484 10.4467C15.2501 10.4637 15.2511 10.481 15.2511 10.4981H15.3355C15.3367 10.4526 15.3293 10.4073 15.3137 10.3646C15.3034 10.3403 15.2895 10.3176 15.2724 10.2974ZM15.2196 10.2254C15.2014 10.2408 15.1503 10.2415 15.1503 10.2415L15.0063 10.2511C15.0063 10.2511 15.0005 10.1693 14.9979 10.1311C15.0199 10.1311 15.1349 10.1215 15.1371 10.1215C15.1536 10.1213 15.1701 10.1203 15.1865 10.1184C15.2006 10.12 15.2138 10.1261 15.2242 10.1357C15.2304 10.1404 15.2353 10.1465 15.2386 10.1535C15.2419 10.1605 15.2435 10.1682 15.2432 10.176C15.2427 10.1852 15.2403 10.1942 15.2362 10.2025C15.2321 10.2108 15.2263 10.2181 15.2192 10.224L15.2196 10.2254Z" fill="#009B3A"/>
<path d="M20.22 11.0112C20.2375 10.8828 20.1585 10.7659 20.0431 10.7498C19.9277 10.7337 19.8201 10.8252 19.8031 10.9533C19.7861 11.0815 19.8645 11.1989 19.9797 11.2149C20.0949 11.231 20.2022 11.1396 20.22 11.0112ZM20.0477 10.8444C20.2015 10.8852 20.1283 11.1617 19.9745 11.1209C19.8206 11.0801 19.8938 10.8033 20.0477 10.8444Z" fill="#009B3A"/>
<path d="M19.5468 10.8293C19.5839 10.8137 19.6157 10.7875 19.638 10.7539C19.6467 10.7366 19.6519 10.7177 19.6533 10.6984C19.6548 10.6791 19.6524 10.6596 19.6463 10.6412C19.6402 10.6228 19.6305 10.6058 19.6179 10.5911C19.6052 10.5764 19.5898 10.5644 19.5724 10.5557L19.5636 10.5516C19.5175 10.5377 19.2864 10.4753 19.2864 10.4753L19.158 10.9267L19.242 10.9493L19.2873 10.7813L19.433 10.8206L19.4683 10.8302C19.4683 10.8302 19.4872 10.9176 19.4762 10.9637C19.4724 10.9804 19.4676 10.9969 19.4618 11.0131L19.542 11.04C19.5583 10.9974 19.5664 10.9522 19.566 10.9066C19.5635 10.88 19.557 10.8539 19.5468 10.8293ZM19.5208 10.7431C19.4985 10.7515 19.4488 10.7352 19.4488 10.7352L19.3087 10.6968L19.3401 10.5804C19.3608 10.5876 19.4728 10.6162 19.4748 10.6169C19.4968 10.6238 19.5228 10.6301 19.5228 10.6301C19.5355 10.6362 19.546 10.6462 19.5528 10.6586C19.557 10.6651 19.5596 10.6726 19.5605 10.6803C19.5613 10.688 19.5603 10.6958 19.5576 10.703C19.5545 10.7119 19.5497 10.72 19.5433 10.7269C19.537 10.7338 19.5294 10.7393 19.5208 10.7431Z" fill="#009B3A"/>
<path d="M21.2482 11.52C21.286 11.5074 21.3194 11.4841 21.3442 11.4528C21.3646 11.4195 21.3711 11.3795 21.3621 11.3414C21.3531 11.3034 21.3294 11.2705 21.2962 11.25L21.2873 11.2449C21.2424 11.2269 21.0175 11.1451 21.0175 11.1451L20.8514 11.584L20.933 11.6138L20.9926 11.4499L21.1344 11.5015L21.1687 11.514C21.1687 11.514 21.1802 11.6028 21.1651 11.6476C21.1599 11.664 21.1538 11.68 21.1466 11.6956L21.2239 11.7302C21.2434 11.6891 21.2549 11.6447 21.258 11.5994C21.2587 11.5726 21.2554 11.5458 21.2482 11.52ZM21.2297 11.4319C21.2056 11.4331 21.1815 11.4284 21.1596 11.4182L21.0235 11.368C21.0235 11.368 21.0514 11.2908 21.0646 11.2545C21.0845 11.2636 21.1937 11.3025 21.1956 11.3025C21.2172 11.3114 21.2419 11.3198 21.2419 11.3198C21.2545 11.3273 21.2643 11.3385 21.27 11.352C21.2734 11.3589 21.2752 11.3665 21.2752 11.3742C21.2752 11.3819 21.2734 11.3895 21.27 11.3964C21.2661 11.4047 21.2605 11.4122 21.2535 11.4183C21.2466 11.4244 21.2385 11.429 21.2297 11.4319Z" fill="#009B3A"/>
<path d="M18.9705 10.6725C19.0072 10.656 19.0383 10.629 19.0598 10.595C19.0766 10.5598 19.0787 10.5194 19.0657 10.4826C19.0527 10.4458 19.0256 10.4157 18.9904 10.3989C18.9872 10.3973 18.984 10.3958 18.9806 10.3946C18.934 10.3816 18.7017 10.3248 18.7017 10.3248L18.5841 10.7793L18.6686 10.8L18.7099 10.6305L18.8565 10.6665L18.892 10.6752M18.9424 10.5871C18.9203 10.596 18.8704 10.5808 18.8704 10.5808L18.7295 10.5458L18.7581 10.4287C18.779 10.4354 18.8915 10.4613 18.8937 10.462C18.916 10.4683 18.9417 10.474 18.9417 10.474C18.9547 10.4798 18.9654 10.4896 18.9724 10.5019C18.9769 10.5082 18.9797 10.5156 18.9807 10.5233C18.9817 10.531 18.9809 10.5388 18.9782 10.546C18.9754 10.555 18.9707 10.5633 18.9644 10.5704C18.9582 10.5775 18.9505 10.5832 18.9419 10.5871H18.9424Z" fill="#009B3A"/>
<path d="M20.713 11.2656C20.7008 11.2606 20.6883 11.2562 20.6756 11.2526C20.6391 11.3218 20.558 11.3712 20.4857 11.3215C20.3542 11.2315 20.5155 10.9954 20.647 11.0856C20.6611 11.0948 20.6728 11.1072 20.6811 11.1218C20.6894 11.1364 20.6942 11.1528 20.695 11.1696C20.7149 11.1782 20.7365 11.1821 20.7565 11.1912L20.7805 11.203C20.785 11.1616 20.7773 11.1198 20.7582 11.0828C20.7391 11.0459 20.7095 11.0153 20.6732 10.9951C20.57 10.9414 20.4377 10.991 20.3782 11.1062C20.3187 11.2214 20.3542 11.358 20.4577 11.4118C20.5611 11.4655 20.6931 11.4156 20.7526 11.3006C20.755 11.2961 20.7569 11.2913 20.7591 11.2867L20.713 11.2656Z" fill="#009B3A"/>
<path d="M20.4603 10.4071L20.3561 10.4827L20.3959 10.6054L20.2918 10.5298L20.1876 10.6054L20.2275 10.4827L20.1233 10.4071H20.2519L20.2918 10.2845L20.3316 10.4071H20.4603Z" fill="white"/>
<path d="M14.5344 11.0496L14.6583 11.1398L14.611 11.2858L14.7348 11.1955L14.8589 11.2858L14.8114 11.1398L14.9355 11.0496H14.7821L14.7348 10.9037L14.6875 11.0496H14.5344Z" fill="white"/>
<path d="M19.9581 11.7084L20.0438 11.7708L20.0112 11.8718L20.0968 11.8094L20.1825 11.8718L20.1499 11.7708L20.2356 11.7084H20.1295L20.0968 11.6074L20.0644 11.7084H19.9581Z" fill="white"/>
<path d="M15.5632 12.8645L15.6156 12.9014L15.5954 12.9638L15.6475 12.9259L15.6998 12.9638L15.6799 12.9026L15.732 12.8645H15.6674L15.6475 12.803L15.6276 12.8645H15.5632Z" fill="white"/>
<path d="M15.1689 12.9756L15.1224 13.1215H14.9692L15.0933 13.2117L15.0458 13.3577L15.1699 13.2674L15.2937 13.3577L15.2464 13.2117L15.3703 13.1215H15.2172L15.1699 12.9756" fill="white"/>
<path d="M14.4005 13.5751L14.5037 13.6502L14.4644 13.7719L14.5676 13.6966L14.6708 13.7719L14.6314 13.6502L14.7346 13.5751H14.6069L14.5676 13.4534L14.5282 13.5751H14.4005Z" fill="white"/>
<path d="M16.7156 12.1435L16.8169 12.2172L16.7782 12.3362L16.8793 12.2626L16.9805 12.3362L16.9419 12.2172L17.0432 12.1435H16.9179L16.8793 12.0242L16.8406 12.1435H16.7156Z" fill="white"/>
<path d="M16.0541 13.6154L16.1474 13.6833L16.1119 13.7933L16.205 13.7253L16.2984 13.7933L16.2629 13.6833L16.356 13.6154H16.2408L16.205 13.5055L16.1695 13.6154H16.0541Z" fill="white"/>
<path d="M15.9154 14.1312L16.0011 14.1936L15.9684 14.2946L16.0541 14.232L16.1398 14.2946L16.1072 14.1936L16.1928 14.1312H16.087L16.0541 14.0302L16.022 14.1312H15.9154Z" fill="white"/>
<path d="M16.5797 14.5236L16.7036 14.6138L16.6563 14.7598L16.7801 14.6695L16.904 14.7598L16.8567 14.6138L16.9805 14.5236H16.8274L16.7801 14.3777L16.7328 14.5236H16.5797Z" fill="white"/>
<path d="M18.5815 12.7543L18.6857 12.8301L18.6459 12.9528L18.75 12.8769L18.8542 12.9528L18.8143 12.8301L18.9185 12.7543H18.7891L18.75 12.6319L18.7102 12.7543H18.5815Z" fill="white"/>
<path d="M18.114 13.1983L18.1999 13.2607L18.1671 13.3617L18.2527 13.2991L18.3387 13.3617L18.3058 13.2607L18.3917 13.1983H18.2856L18.253 13.0972L18.2201 13.1983H18.114Z" fill="white"/>
<path d="M18.4147 13.5381L18.4668 13.576L18.4468 13.6375L18.4989 13.5996L18.5512 13.6375L18.5313 13.576L18.5834 13.5381H18.5188L18.4989 13.4767L18.479 13.5381H18.4147Z" fill="white"/>
<path d="M19.15 13.1851L19.2542 13.2609L19.2143 13.3836L19.3183 13.3077L19.4224 13.3836L19.3828 13.2609L19.4867 13.1851H19.3581L19.3183 13.0624L19.2791 13.1851H19.15Z" fill="white"/>
<path d="M18.5496 14.1696L18.6734 14.2598L18.6261 14.4058L18.75 14.3155L18.8738 14.4058L18.8265 14.2598L18.9504 14.1696H18.7972L18.75 14.0237L18.7034 14.1696H18.5496Z" fill="white"/>
<path d="M18.6826 15.8345L18.7225 15.8633L18.7073 15.9101L18.7469 15.8813L18.7868 15.9101L18.7714 15.8633L18.8113 15.8345H18.7621L18.7469 15.7877L18.7321 15.8345H18.6826Z" fill="white"/>
<path d="M19.6942 14.7211L19.7799 14.7837L19.7473 14.8845L19.8329 14.8221L19.9186 14.8845L19.886 14.7837L19.9717 14.7211H19.8656L19.8329 14.6203L19.8005 14.7211H19.6942Z" fill="white"/>
<path d="M20.0518 15.2623L20.1559 15.3379L20.1161 15.4605L20.2202 15.3847L20.3244 15.4605L20.2846 15.3379L20.3885 15.2623H20.2598L20.2202 15.1396L20.1804 15.2623H20.0518Z" fill="white"/>
<path d="M20.6988 14.8956L20.7848 14.8332H20.6787L20.646 14.7321L20.6136 14.8332H20.5071L20.593 14.8956L20.5601 14.9966L20.646 14.9342L20.7317 14.9966L20.6988 14.8956Z" fill="white"/>
<path d="M21.054 14.6695L21.1399 14.7319L21.107 14.833L21.1929 14.7706L21.2786 14.833L21.2457 14.7319L21.3316 14.6695H21.2256L21.1929 14.5687L21.16 14.6695H21.054Z" fill="white"/>
<path d="M21.037 15.1356L21.1411 15.2114L21.1013 15.3341L21.2055 15.2582L21.3096 15.3341L21.2698 15.2114L21.3739 15.1356H21.2453L21.2055 15.0129L21.1656 15.1356H21.037Z" fill="white"/>
<path d="M21.0785 15.6504L21.1642 15.7128L21.1315 15.8138L21.2172 15.7514L21.3029 15.8138L21.2703 15.7128L21.3559 15.6504H21.2494L21.2172 15.5493L21.1848 15.6504H21.0785Z" fill="white"/>
<path d="M21.5681 14.7578L21.6538 14.8202L21.6212 14.9213L21.7068 14.8589L21.7925 14.9213L21.7599 14.8202L21.8456 14.7578H21.7395L21.7068 14.6568L21.674 14.7578H21.5681Z" fill="white"/>
<path d="M21.9319 14.5025L22.036 14.5781L21.9962 14.7007L22.1004 14.6251L22.2045 14.7007L22.1647 14.5781L22.2688 14.5025H22.1402L22.1004 14.3798L22.0612 14.5025L21.935 14.5017" fill="white"/>
<path d="M22.2275 14.118L22.3317 14.1936L22.2919 14.3162L22.396 14.2406L22.4999 14.3162L22.4603 14.1936L22.5643 14.118H22.4356L22.3958 13.9954L22.3562 14.118H22.2275Z" fill="white"/>
<path d="M21.995 13.661L22.1188 13.7512L22.0716 13.8972L22.1954 13.8069L22.3192 13.8972L22.272 13.7512L22.3958 13.661H22.2427L22.1954 13.5151L22.1481 13.661H21.995Z" fill="white"/>
<path d="M22.7455 13.7354L22.8312 13.7978L22.7985 13.8989L22.8842 13.8365L22.9699 13.8989L22.9372 13.7978L23.0229 13.7354H22.9168L22.8842 13.6344L22.8518 13.7354H22.7455Z" fill="white"/>
</g>
</g>
<defs>
<clipPath id="clip0_235_602">
<rect width="36" height="24" fill="white" transform="translate(0.75)"/>
</clipPath>
</defs>
</svg>
