<svg width="19" height="26" viewBox="0 0 19 26" fill="none" xmlns="http://www.w3.org/2000/svg">
<path d="M8.41152 24.9956C1.31689 14.7105 0 13.6549 0 9.875C0 4.69731 4.19731 0.5 9.375 0.5C14.5527 0.5 18.75 4.69731 18.75 9.875C18.75 13.6549 17.4331 14.7105 10.3385 24.9956C9.8729 25.6682 8.87705 25.6681 8.41152 24.9956ZM9.375 13.7812C11.5324 13.7812 13.2812 12.0324 13.2812 9.875C13.2812 7.71763 11.5324 5.96875 9.375 5.96875C7.21763 5.96875 5.46875 7.71763 5.46875 9.875C5.46875 12.0324 7.21763 13.7812 9.375 13.7812Z" fill="#D1D1D1"/>
</svg>
