<svg width="1920" height="423" viewBox="0 0 1920 423" fill="none" xmlns="http://www.w3.org/2000/svg">
<g clip-path="url(#clip0_170_50)">
<path d="M1925 -574.228H-4.99997V423H1925V-574.228Z" fill="#151515"/>
<path d="M-4.99997 81.3571L75.4167 76.7403C155.833 72.1235 316.667 62.8899 477.5 51.8096C638.333 40.7293 799.167 27.8022 960 27.8022C1120.83 27.8022 1281.67 40.7293 1442.5 44.0533C1603.33 47.5621 1764.17 41.2833 1844.58 38.3286L1925 35.1891V424.847H1844.58C1764.17 424.847 1603.33 424.847 1442.5 424.847C1281.67 424.847 1120.83 424.847 960 424.847C799.167 424.847 638.333 424.847 477.5 424.847C316.667 424.847 155.833 424.847 75.4167 424.847H-4.99997V81.3571Z" fill="#303030"/>
<path d="M-4.99997 138.605L75.4167 127.525C155.833 116.445 316.667 94.2841 477.5 83.2038C638.333 72.1234 799.167 72.1234 960 71.7541C1120.83 71.5694 1281.67 70.8308 1442.5 82.6498C1603.33 94.2841 1764.17 118.291 1844.58 130.295L1925 142.299V424.847H1844.58C1764.17 424.847 1603.33 424.847 1442.5 424.847C1281.67 424.847 1120.83 424.847 960 424.847C799.167 424.847 638.333 424.847 477.5 424.847C316.667 424.847 155.833 424.847 75.4167 424.847H-4.99997V138.605Z" fill="#2A2A2A"/>
<path d="M-4.99997 127.525L75.4167 130.664C155.833 133.619 316.667 139.898 477.5 152.825C638.333 165.752 799.167 185.327 960 186.251C1120.83 187.174 1281.67 169.446 1442.5 165.383C1603.33 161.32 1764.17 171.292 1844.58 176.094L1925 181.08V424.847H1844.58C1764.17 424.847 1603.33 424.847 1442.5 424.847C1281.67 424.847 1120.83 424.847 960 424.847C799.167 424.847 638.333 424.847 477.5 424.847C316.667 424.847 155.833 424.847 75.4167 424.847H-4.99997V127.525Z" fill="#242424"/>
<path d="M-4.99997 197.7L75.4167 206.011C155.833 214.321 316.667 230.941 477.5 231.865C638.333 232.788 799.167 218.014 960 212.474C1120.83 206.934 1281.67 210.627 1442.5 220.23C1603.33 229.649 1764.17 245.161 1844.58 252.733L1925 260.489V424.847H1844.58C1764.17 424.847 1603.33 424.847 1442.5 424.847C1281.67 424.847 1120.83 424.847 960 424.847C799.167 424.847 638.333 424.847 477.5 424.847C316.667 424.847 155.833 424.847 75.4167 424.847H-4.99997V197.7Z" fill="#1E1E1E"/>
<path d="M-4.99997 321.431L75.4167 317.368C155.833 313.49 316.667 305.364 477.5 297.054C638.333 288.744 799.167 280.249 960 278.033C1120.83 275.817 1281.67 280.249 1442.5 287.636C1603.33 295.022 1764.17 305.364 1844.58 310.72L1925 315.89V424.847H1844.58C1764.17 424.847 1603.33 424.847 1442.5 424.847C1281.67 424.847 1120.83 424.847 960 424.847C799.167 424.847 638.333 424.847 477.5 424.847C316.667 424.847 155.833 424.847 75.4167 424.847H-4.99997V321.431Z" fill="#181818"/>
<path d="M-4.99997 350.978L75.4167 347.285C155.833 343.591 316.667 336.204 477.5 340.452C638.333 344.884 799.167 360.766 960 367.229C1120.83 373.693 1281.67 370.738 1442.5 366.121C1603.33 361.504 1764.17 355.225 1844.58 352.271L1925 349.131V424.847H1844.58C1764.17 424.847 1603.33 424.847 1442.5 424.847C1281.67 424.847 1120.83 424.847 960 424.847C799.167 424.847 638.333 424.847 477.5 424.847C316.667 424.847 155.833 424.847 75.4167 424.847H-4.99997V350.978Z" fill="#121212"/>
<path d="M0.5 419L1919.5 421V472.5L0.5 419Z" fill="#121212"/>
</g>
<defs>
<clipPath id="clip0_170_50">
<rect width="1930" height="423" fill="white" transform="translate(-4.99997)"/>
</clipPath>
</defs>
</svg>
