<svg id="visual" viewBox="0 0 1920 720" width="1920" height="720" xmlns="http://www.w3.org/2000/svg" xmlns:xlink="http://www.w3.org/1999/xlink" version="1.1"><rect x="0" y="0" width="1920" height="720" fill="#151515"></rect><path d="M0 411L80 419.5C160 428 320 445 480 440.8C640 436.7 800 411.3 960 402.7C1120 394 1280 402 1440 406.2C1600 410.3 1760 410.7 1840 410.8L1920 411L1920 721L1840 721C1760 721 1600 721 1440 721C1280 721 1120 721 960 721C800 721 640 721 480 721C320 721 160 721 80 721L0 721Z" fill="#303030"></path><path d="M0 454L80 458.5C160 463 320 472 480 476C640 480 800 479 960 480.8C1120 482.7 1280 487.3 1440 480.8C1600 474.3 1760 456.7 1840 447.8L1920 439L1920 721L1840 721C1760 721 1600 721 1440 721C1280 721 1120 721 960 721C800 721 640 721 480 721C320 721 160 721 80 721L0 721Z" fill="#2a2a2a"></path><path d="M0 516L80 523.2C160 530.3 320 544.7 480 549.3C640 554 800 549 960 542.5C1120 536 1280 528 1440 524.5C1600 521 1760 522 1840 522.5L1920 523L1920 721L1840 721C1760 721 1600 721 1440 721C1280 721 1120 721 960 721C800 721 640 721 480 721C320 721 160 721 80 721L0 721Z" fill="#242424"></path><path d="M0 605L80 596.5C160 588 320 571 480 569.8C640 568.7 800 583.3 960 580.8C1120 578.3 1280 558.7 1440 552.5C1600 546.3 1760 553.7 1840 557.3L1920 561L1920 721L1840 721C1760 721 1600 721 1440 721C1280 721 1120 721 960 721C800 721 640 721 480 721C320 721 160 721 80 721L0 721Z" fill="#1e1e1e"></path><path d="M0 607L80 613C160 619 320 631 480 633.7C640 636.3 800 629.7 960 628C1120 626.3 1280 629.7 1440 623.5C1600 617.3 1760 601.7 1840 593.8L1920 586L1920 721L1840 721C1760 721 1600 721 1440 721C1280 721 1120 721 960 721C800 721 640 721 480 721C320 721 160 721 80 721L0 721Z" fill="#181818"></path><path d="M0 653L80 653C160 653 320 653 480 658.7C640 664.3 800 675.7 960 673.5C1120 671.3 1280 655.7 1440 649.8C1600 644 1760 648 1840 650L1920 652L1920 721L1840 721C1760 721 1600 721 1440 721C1280 721 1120 721 960 721C800 721 640 721 480 721C320 721 160 721 80 721L0 721Z" fill="#121212"></path></svg>